<svg width="24" height="24" viewBox="0 0 24 24" fill="none" xmlns="http://www.w3.org/2000/svg">
<path d="M4.6 6.59997H5.8V18.888C5.80158 19.4476 6.02461 19.9839 6.42034 20.3796C6.81607 20.7754 7.35235 20.9984 7.912 21H16.912C17.4675 20.9921 17.9976 20.7663 18.3882 20.3713C18.7788 19.9762 18.9985 19.4435 19 18.888V6.59997H20.2C20.3591 6.59997 20.5117 6.53676 20.6243 6.42423C20.7368 6.31171 20.8 6.1591 20.8 5.99997C20.8 5.84084 20.7368 5.68823 20.6243 5.57571C20.5117 5.46318 20.3591 5.39997 20.2 5.39997H4.6C4.44087 5.39997 4.28826 5.46318 4.17574 5.57571C4.06321 5.68823 4 5.84084 4 5.99997C4 6.1591 4.06321 6.31171 4.17574 6.42423C4.28826 6.53676 4.44087 6.59997 4.6 6.59997ZM17.8 6.59997V18.888C17.8 19.1298 17.7039 19.3618 17.5329 19.5329C17.3618 19.7039 17.1299 19.8 16.888 19.8H7.888C7.65031 19.7937 7.42445 19.6949 7.25858 19.5245C7.0927 19.3542 6.99992 19.1257 7 18.888V6.59997H17.8ZM10 4.19997H14.8C14.9591 4.19997 15.1117 4.13676 15.2243 4.02423C15.3368 3.91171 15.4 3.7591 15.4 3.59997C15.4 3.44084 15.3368 3.28823 15.2243 3.17571C15.1117 3.06318 14.9591 2.99997 14.8 2.99997H10C9.84087 2.99997 9.68826 3.06318 9.57574 3.17571C9.46321 3.28823 9.4 3.44084 9.4 3.59997C9.4 3.7591 9.46321 3.91171 9.57574 4.02423C9.68826 4.13676 9.84087 4.19997 10 4.19997Z" fill="#868E96"/>
<path d="M10.408 17.4C10.5671 17.4 10.7197 17.3368 10.8322 17.2243C10.9448 17.1117 11.008 16.9591 11.008 16.8V9.6C11.008 9.44087 10.9448 9.28826 10.8322 9.17574C10.7197 9.06321 10.5671 9 10.408 9C10.2489 9 10.0962 9.06321 9.98372 9.17574C9.8712 9.28826 9.80798 9.44087 9.80798 9.6V16.8C9.80798 16.9591 9.8712 17.1117 9.98372 17.2243C10.0962 17.3368 10.2489 17.4 10.408 17.4ZM14.392 17.4C14.5511 17.4 14.7037 17.3368 14.8162 17.2243C14.9288 17.1117 14.992 16.9591 14.992 16.8V9.6C14.992 9.44087 14.9288 9.28826 14.8162 9.17574C14.7037 9.06321 14.5511 9 14.392 9C14.2329 9 14.0802 9.06321 13.9677 9.17574C13.8552 9.28826 13.792 9.44087 13.792 9.6V16.8C13.792 16.9591 13.8552 17.1117 13.9677 17.2243C14.0802 17.3368 14.2329 17.4 14.392 17.4Z" fill="#868E96"/>
</svg>
