<svg width="24" height="24" viewBox="0 0 24 24" fill="none" xmlns="http://www.w3.org/2000/svg">
<path d="M5.56691 15.5657C5.44515 15.5657 5.32613 15.5296 5.22489 15.4619C5.12365 15.3942 5.04475 15.2981 4.99816 15.1856C4.95156 15.0731 4.93937 14.9493 4.96312 14.8299C4.98687 14.7104 5.04549 14.6007 5.13158 14.5146L14.7539 4.89227C14.8107 4.83346 14.8787 4.78655 14.9538 4.75428C15.0289 4.722 15.1097 4.70502 15.1915 4.70431C15.2732 4.7036 15.3543 4.71918 15.43 4.75014C15.5057 4.7811 15.5744 4.82682 15.6322 4.88463C15.69 4.94245 15.7358 5.0112 15.7667 5.08687C15.7977 5.16255 15.8133 5.24363 15.8126 5.32539C15.8118 5.40715 15.7949 5.48794 15.7626 5.56307C15.7303 5.63819 15.6834 5.70614 15.6246 5.76294L6.00225 15.3853C5.88218 15.5054 5.72455 15.5657 5.56691 15.5657Z" fill="#868E96"/>
<path d="M4.61624 20C4.52436 20.0001 4.43363 19.9796 4.3507 19.94C4.26777 19.9005 4.19474 19.8429 4.13696 19.7714C4.07919 19.7 4.03814 19.6165 4.01681 19.5271C3.99549 19.4378 3.99444 19.3448 4.01373 19.2549L4.96507 14.8206C4.98181 14.7413 5.01404 14.6661 5.0599 14.5993C5.10576 14.5325 5.16435 14.4754 5.23232 14.4313C5.30029 14.3872 5.37629 14.357 5.45598 14.3423C5.53566 14.3276 5.61746 14.3288 5.69668 14.3458C5.7759 14.3628 5.85099 14.3953 5.91764 14.4413C5.98429 14.4874 6.0412 14.5462 6.08509 14.6143C6.12899 14.6824 6.15901 14.7585 6.17343 14.8382C6.18786 14.9179 6.18641 14.9997 6.16917 15.0789L5.21783 19.5132C5.18833 19.6509 5.11253 19.7743 5.00306 19.8629C4.89358 19.9515 4.75706 19.9999 4.61624 20ZM9.04996 19.0486C8.9282 19.0486 8.80917 19.0125 8.70794 18.9448C8.6067 18.8772 8.5278 18.781 8.48121 18.6685C8.43461 18.556 8.42242 18.4322 8.44617 18.3128C8.46992 18.1934 8.52854 18.0837 8.61463 17.9976L18.237 8.37551C18.2938 8.3167 18.3617 8.26979 18.4368 8.23752C18.512 8.20525 18.5928 8.18826 18.6745 8.18755C18.7563 8.18684 18.8374 8.20242 18.913 8.23338C18.9887 8.26434 19.0575 8.31007 19.1153 8.36788C19.1731 8.42569 19.2188 8.49444 19.2498 8.57012C19.2807 8.64579 19.2963 8.72687 19.2956 8.80863C19.2949 8.89039 19.2779 8.97119 19.2456 9.04631C19.2134 9.12144 19.1665 9.18938 19.1077 9.24618L9.48561 18.8682C9.42847 18.9255 9.36056 18.971 9.2858 19.0019C9.21103 19.0329 9.13089 19.0488 9.04996 19.0486Z" fill="#868E96"/>
<path d="M4.6154 20C4.46367 19.9994 4.31751 19.9427 4.20494 19.841C4.09237 19.7393 4.02131 19.5996 4.00537 19.4487C3.98942 19.2978 4.02972 19.1463 4.11854 19.0233C4.20737 18.9003 4.33846 18.8144 4.4867 18.782L8.92104 17.8307C9.08049 17.797 9.2468 17.8279 9.3835 17.9166C9.52021 18.0054 9.61617 18.1447 9.65036 18.304C9.68454 18.4634 9.65416 18.6298 9.56587 18.7667C9.47758 18.9037 9.33859 19.0001 9.17935 19.0348L4.74501 19.9861C4.70243 19.9954 4.65897 20.0001 4.6154 20ZM16.931 11.168C16.8502 11.1681 16.7701 11.1523 16.6953 11.1213C16.6206 11.0903 16.5528 11.0449 16.4957 10.9875L13.0127 7.50455C12.9539 7.44775 12.907 7.3798 12.8747 7.30468C12.8424 7.22956 12.8255 7.14876 12.8248 7.067C12.824 6.98524 12.8396 6.90416 12.8706 6.82848C12.9015 6.75281 12.9473 6.68406 13.0051 6.62625C13.0629 6.56843 13.1316 6.52271 13.2073 6.49175C13.283 6.46079 13.3641 6.44521 13.4458 6.44592C13.5276 6.44663 13.6084 6.46362 13.6835 6.49589C13.7586 6.52816 13.8266 6.57507 13.8834 6.63388L17.3664 10.1169C17.4525 10.203 17.5111 10.3127 17.5348 10.4321C17.5586 10.5515 17.5464 10.6753 17.4998 10.7878C17.4532 10.9003 17.3743 10.9965 17.2731 11.0642C17.1718 11.1318 17.0528 11.1679 16.931 11.168ZM18.6727 9.42662C18.5508 9.42672 18.4317 9.39065 18.3304 9.323C18.229 9.25535 18.15 9.15915 18.1034 9.04657C18.0567 8.934 18.0445 8.81012 18.0683 8.69061C18.0921 8.5711 18.1508 8.46134 18.2371 8.37522C18.5797 8.03256 18.7684 7.56859 18.7684 7.06921C18.7684 6.56984 18.5797 6.10587 18.2371 5.76321C17.8941 5.42023 17.4301 5.2315 16.9307 5.2315C16.4314 5.2315 15.9674 5.42023 15.6247 5.76321C15.5675 5.82039 15.4996 5.86576 15.4249 5.89671C15.3502 5.92766 15.2701 5.94359 15.1892 5.94359C15.1084 5.94359 15.0283 5.92766 14.9536 5.89671C14.8788 5.86576 14.8109 5.82039 14.7537 5.76321C14.6966 5.70602 14.6512 5.63812 14.6202 5.5634C14.5893 5.48868 14.5734 5.40859 14.5734 5.32771C14.5734 5.24684 14.5893 5.16675 14.6202 5.09203C14.6512 5.01731 14.6966 4.94941 14.7537 4.89222C15.3289 4.3168 16.1019 4 16.9307 4C17.7592 4 18.5326 4.3168 19.1077 4.89222C19.6831 5.46734 20 6.24041 20 7.06921C20 7.89802 19.6831 8.67109 19.1077 9.2462C19.0507 9.30349 18.9829 9.34892 18.9082 9.37988C18.8336 9.41085 18.7535 9.42673 18.6727 9.42662Z" fill="#868E96"/>
</svg>
