<svg width="36" height="29" viewBox="0 0 36 29" fill="none" xmlns="http://www.w3.org/2000/svg">
<g id="Group">
<path id="Union" fill-rule="evenodd" clip-rule="evenodd" d="M29.6011 3.74682L35.6831 9.13949C36.0888 9.49919 36.1073 10.0851 35.7251 10.4651L31.7482 14.4188C31.378 14.7868 30.7579 14.8356 30.3232 14.5311L27.8539 12.8014L27.6037 27.8821C27.5951 28.4039 27.1254 28.8228 26.5492 28.8228H9.451C8.87472 28.8228 8.4051 28.4039 8.39645 27.8821L8.14621 12.8014L5.67698 14.5311C5.24216 14.8356 4.62208 14.7867 4.25195 14.4188L0.275011 10.4651C-0.107278 10.0851 -0.0888561 9.49919 0.316847 9.13949L6.39887 3.74682C7.81504 2.49103 9.68668 1.79946 11.6688 1.79946H12.1896C12.245 1.75835 12.3048 1.72243 12.3682 1.69223L13.9607 0.93304C14.476 0.687256 15.114 0.8665 15.3853 1.3333C15.4689 1.47682 15.5105 1.63732 15.5062 1.79952H20.4938C20.4895 1.63732 20.5311 1.47682 20.6146 1.3333C20.8861 0.866564 21.5237 0.687193 22.0392 0.93304L23.6318 1.69223C23.6951 1.72243 23.755 1.75835 23.8103 1.79946H24.3312C26.3133 1.79946 28.1848 2.49103 29.6011 3.74682Z" fill="#51CF66"/>
</g>
</svg>
