<svg width="28" height="14" viewBox="0 0 28 14" fill="none" xmlns="http://www.w3.org/2000/svg">
<path d="M14.7003 0.1418C14.6804 0.0998477 14.6501 0.0644719 14.6126 0.0395295C14.5751 0.0145871 14.5318 0.00103505 14.4876 0.000348075H10.53H10.4591H10.4258L10.3674 0.0445511L4.27465 8.59798V0.247888C4.27477 0.215913 4.26894 0.184228 4.25749 0.154646C4.24604 0.125064 4.22919 0.0981664 4.20792 0.0754936L4.10367 0.000348075H0.229508C0.198933 1.16982e-05 0.168637 0.00653258 0.140607 0.0194835C0.112577 0.0324344 0.0874479 0.0515218 0.0668689 0.0754936L0.000143444 0.181583V13.5355C-0.000970104 13.5676 0.00441013 13.5996 0.015918 13.6294C0.027426 13.6591 0.0447971 13.6859 0.0668689 13.7079L0.166951 13.7831H4.55822H4.62495H4.65831L4.71669 13.7433L14.6586 0.38492C14.6846 0.351605 14.7022 0.311735 14.7095 0.269151C14.7168 0.226568 14.7136 0.182708 14.7003 0.1418Z" fill="#ADB5BD"/>
<path d="M0.905102 13.5355V0.247896C0.903744 0.236524 0.904858 0.224973 0.90836 0.214128C0.911862 0.203282 0.917659 0.19343 0.925306 0.185325C0.932953 0.177219 0.942245 0.171075 0.952477 0.167363C0.962709 0.163651 0.973609 0.16247 0.984338 0.16391H4.02445C4.0352 0.163309 4.04595 0.165038 4.05605 0.168989C4.06615 0.17294 4.07539 0.17903 4.08319 0.18689C4.091 0.194749 4.09721 0.204212 4.10145 0.214701C4.10569 0.22519 4.10787 0.236485 4.10786 0.247896V9.86663C4.10788 9.88424 4.11313 9.9014 4.12285 9.91568C4.13258 9.92996 4.1463 9.94063 4.16206 9.9462C4.17801 9.95289 4.19557 9.95393 4.21211 9.94915C4.22865 9.94436 4.24328 9.93402 4.25381 9.91967L11.2056 0.194852C11.2153 0.192827 11.2252 0.192827 11.2348 0.194852C11.247 0.19078 11.2601 0.19078 11.2723 0.194852H14.4751C14.4907 0.194189 14.5062 0.198454 14.5196 0.207108C14.5329 0.215762 14.5436 0.228417 14.5502 0.243477C14.5584 0.256561 14.5628 0.271943 14.5628 0.28768C14.5628 0.303416 14.5584 0.3188 14.5502 0.331884L4.62079 13.5886C4.61116 13.5906 4.60124 13.5906 4.5916 13.5886C4.58087 13.593 4.56896 13.593 4.55824 13.5886H0.984338C0.973609 13.59 0.962709 13.5888 0.952477 13.5851C0.942245 13.5814 0.932953 13.5753 0.925306 13.5672C0.917659 13.5591 0.911862 13.5492 0.90836 13.5384C0.904858 13.5275 0.903744 13.516 0.905102 13.5046V13.5355Z" fill="#D9D9D9"/>
<path d="M12.1064 13.9776C12.0693 13.9777 12.0327 13.968 12 13.9495C11.9673 13.931 11.9393 13.9042 11.9187 13.8715C11.8985 13.8385 11.8857 13.801 11.8814 13.7619C11.877 13.7228 11.8813 13.6831 11.8937 13.6461C11.8937 13.6461 12.6652 11.4757 12.6944 11.4094C12.7107 11.3534 12.7427 11.304 12.7861 11.2679C12.8254 11.2393 12.8719 11.2239 12.9196 11.2237H19.8839C20.0252 11.2234 20.1657 11.2011 20.3009 11.1574C20.4368 11.11 20.5659 11.0431 20.6846 10.9585C20.8034 10.8715 20.9089 10.7656 20.9974 10.6446C21.0866 10.5201 21.1596 10.3833 21.2142 10.238L21.8731 8.4698H17.3984C16.8347 8.48708 16.2719 8.41102 15.7303 8.24436C15.3397 8.13335 14.9967 7.88372 14.7587 7.5371C14.5511 7.16107 14.4675 6.72252 14.521 6.29056C14.5761 5.68244 14.7166 5.08648 14.938 4.52241L15.1548 3.93008C15.3837 3.3046 15.6834 2.71088 16.0473 2.16193C16.3623 1.68724 16.7516 1.27313 17.1982 0.937486C17.6466 0.614165 18.1448 0.376314 18.6703 0.234647C19.2741 0.0726506 19.895 -0.00609223 20.5178 0.00036741H27.7698C27.8078 0.00119968 27.845 0.0116677 27.8784 0.0308951C27.9118 0.0501225 27.9403 0.0775493 27.9617 0.110877C27.9825 0.144509 27.9953 0.183018 27.9989 0.223071C28.0026 0.263123 27.9969 0.303511 27.9825 0.340736L27.1276 2.64817L27.0609 2.71448C27.021 2.74172 26.9749 2.75699 26.9274 2.75868H21.0557C20.7059 2.74668 20.361 2.84849 20.0674 3.05042C19.7815 3.27262 19.5651 3.58057 19.446 3.9345L19.3001 4.32791C19.2302 4.50031 19.1893 4.68431 19.1791 4.87162C19.1742 5.00625 19.2124 5.13867 19.2875 5.24735C19.3533 5.34506 19.4468 5.41787 19.5544 5.45511C19.7141 5.51279 19.8821 5.53974 20.0507 5.53467H23.5579C24.0814 5.52061 24.6037 5.59522 25.105 5.75569C25.4772 5.86795 25.8032 6.10918 26.0308 6.44085C26.2293 6.80114 26.3127 7.21976 26.2685 7.63435C26.2158 8.19915 26.0822 8.75214 25.8724 9.27431L25.5054 10.2601C25.2963 10.8513 25.0159 11.4114 24.6713 11.9265C24.367 12.3782 23.9935 12.7727 23.5662 13.0935C23.1362 13.4035 22.6595 13.6337 22.1567 13.7742C21.5902 13.9297 21.007 14.0055 20.4219 13.9997L12.1064 13.9776Z" fill="#ADB5BD"/>
<path d="M20.3927 13.8185H12.8612C12.8482 13.8189 12.8353 13.8158 12.8237 13.8097C12.812 13.8035 12.802 13.7944 12.7945 13.7831C12.7892 13.7706 12.7864 13.7571 12.7864 13.7434C12.7864 13.7296 12.7892 13.7161 12.7945 13.7036L13.6285 11.4403C13.6343 11.4231 13.6444 11.4078 13.6577 11.3961C13.6727 11.3916 13.6886 11.3916 13.7036 11.3961H20.6637C20.8235 11.3966 20.9824 11.3713 21.135 11.321C21.2837 11.27 21.4243 11.1955 21.552 11.1C21.6838 11.0051 21.8006 10.8887 21.8981 10.7552C21.9994 10.6224 22.0797 10.4732 22.1358 10.3131L22.8323 8.44333C22.8392 8.43056 22.8429 8.41608 22.8429 8.40134C22.8429 8.38659 22.8392 8.37211 22.8323 8.35934C22.825 8.34779 22.815 8.33846 22.8033 8.33225C22.7916 8.32605 22.7786 8.3232 22.7655 8.32398H18.1783C17.6357 8.34032 17.0941 8.26725 16.5727 8.10738C16.2048 8.01072 15.8803 7.78089 15.6553 7.45758C15.466 7.11011 15.3912 6.70579 15.4426 6.30829C15.5011 5.72079 15.6417 5.14576 15.8596 4.60202L15.968 4.30586L16.0806 4.00969C16.3003 3.3923 16.5931 2.80706 16.9522 2.26807C17.2569 1.80878 17.6335 1.40812 18.0657 1.08341C18.4988 0.763828 18.9815 0.527425 19.4919 0.384987C20.0822 0.228432 20.6891 0.15267 21.2976 0.159548H27.799C27.812 0.159183 27.8249 0.162217 27.8365 0.168384C27.8482 0.174552 27.8582 0.183662 27.8657 0.19491C27.871 0.207423 27.8738 0.220981 27.8738 0.234694C27.8738 0.248407 27.871 0.261964 27.8657 0.274477L27.0317 2.53771C27.0269 2.55432 27.0165 2.56848 27.0025 2.57749C26.9875 2.58181 26.9717 2.58181 26.9566 2.57749H21.0557C20.6761 2.56456 20.302 2.67567 19.984 2.89576C19.6619 3.14076 19.4187 3.48493 19.2875 3.8815L19.2166 4.076L19.1416 4.27492C19.0661 4.46435 19.0223 4.66629 19.0123 4.87167C19.0035 5.02807 19.043 5.18325 19.1249 5.3137C19.2099 5.43695 19.3275 5.53077 19.4627 5.58335C19.6395 5.64824 19.8261 5.67821 20.0132 5.67175H23.5203C24.0269 5.65662 24.5324 5.72826 25.0175 5.88393C25.3534 5.98699 25.6471 6.20644 25.8515 6.5072C26.0316 6.83731 26.1062 7.2203 26.0642 7.59904C26.0116 8.14864 25.8808 8.68665 25.6764 9.19479L25.3136 10.1805C25.1005 10.7588 24.8203 11.3068 24.4795 11.8117C24.1992 12.2452 23.8541 12.6274 23.4578 12.9433C23.0425 13.2435 22.581 13.4649 22.0941 13.5975C21.5387 13.7505 20.9665 13.8249 20.3927 13.8185Z" fill="#D9D9D9"/>
</svg>
